<mxfile host="app.diagrams.net" agent="Mozilla/5.0 (Windows NT 10.0; Win64; x64) AppleWebKit/537.36 (KHTML, like Gecko) Chrome/135.0.0.0 Safari/537.36" version="26.3.0">
  <diagram name="PÃ¡gina-1" id="_uKxhh97R-gAc3r2o9mR">
    <mxGraphModel dx="2143" dy="1043" grid="1" gridSize="10" guides="1" tooltips="1" connect="1" arrows="1" fold="1" page="1" pageScale="1" pageWidth="827" pageHeight="1169" math="0" shadow="0">
      <root>
        <mxCell id="0" />
        <mxCell id="1" parent="0" />
        <mxCell id="v7X0b-4rlKKfZrICmxZC-1" value="Externos" style="whiteSpace=wrap;strokeWidth=2;" vertex="1" parent="1">
          <mxGeometry x="1127" y="407" width="705" height="104" as="geometry" />
        </mxCell>
        <mxCell id="v7X0b-4rlKKfZrICmxZC-2" value="GraphQLBackend" style="whiteSpace=wrap;strokeWidth=2;" vertex="1" parent="1">
          <mxGeometry x="20" y="278" width="1087" height="362" as="geometry" />
        </mxCell>
        <mxCell id="v7X0b-4rlKKfZrICmxZC-3" value="BackendREST" style="whiteSpace=wrap;strokeWidth=2;" vertex="1" parent="1">
          <mxGeometry x="1851" y="278" width="2075" height="233" as="geometry" />
        </mxCell>
        <mxCell id="v7X0b-4rlKKfZrICmxZC-4" value="Frontend" style="whiteSpace=wrap;strokeWidth=2;" vertex="1" parent="1">
          <mxGeometry x="269" y="20" width="3736" height="208" as="geometry" />
        </mxCell>
        <mxCell id="v7X0b-4rlKKfZrICmxZC-5" value="auth.html" style="whiteSpace=wrap;strokeWidth=2;" vertex="1" parent="1">
          <mxGeometry x="3367" y="149" width="131" height="54" as="geometry" />
        </mxCell>
        <mxCell id="v7X0b-4rlKKfZrICmxZC-6" value="inicio.html" style="whiteSpace=wrap;strokeWidth=2;" vertex="1" parent="1">
          <mxGeometry x="3180" y="149" width="138" height="54" as="geometry" />
        </mxCell>
        <mxCell id="v7X0b-4rlKKfZrICmxZC-7" value="adminUsers.html" style="whiteSpace=wrap;strokeWidth=2;" vertex="1" parent="1">
          <mxGeometry x="2948" y="149" width="181" height="54" as="geometry" />
        </mxCell>
        <mxCell id="v7X0b-4rlKKfZrICmxZC-8" value="adminPlaylists.html" style="whiteSpace=wrap;strokeWidth=2;" vertex="1" parent="1">
          <mxGeometry x="2697" y="149" width="201" height="54" as="geometry" />
        </mxCell>
        <mxCell id="v7X0b-4rlKKfZrICmxZC-9" value="adminAssignVideos.html" style="whiteSpace=wrap;strokeWidth=2;" vertex="1" parent="1">
          <mxGeometry x="2356" y="149" width="233" height="54" as="geometry" />
        </mxCell>
        <mxCell id="v7X0b-4rlKKfZrICmxZC-10" value="index.html" style="whiteSpace=wrap;strokeWidth=2;" vertex="1" parent="1">
          <mxGeometry x="1828" y="149" width="138" height="54" as="geometry" />
        </mxCell>
        <mxCell id="v7X0b-4rlKKfZrICmxZC-11" value="playlist.html" style="whiteSpace=wrap;strokeWidth=2;" vertex="1" parent="1">
          <mxGeometry x="304" y="149" width="151" height="54" as="geometry" />
        </mxCell>
        <mxCell id="v7X0b-4rlKKfZrICmxZC-12" value="verify.html" style="whiteSpace=wrap;strokeWidth=2;" vertex="1" parent="1">
          <mxGeometry x="3549" y="149" width="138" height="54" as="geometry" />
        </mxCell>
        <mxCell id="v7X0b-4rlKKfZrICmxZC-13" value="completar-registro.html" style="whiteSpace=wrap;strokeWidth=2;" vertex="1" parent="1">
          <mxGeometry x="3737" y="149" width="233" height="54" as="geometry" />
        </mxCell>
        <mxCell id="v7X0b-4rlKKfZrICmxZC-14" value="JS_Modules" style="whiteSpace=wrap;strokeWidth=2;" vertex="1" parent="1">
          <mxGeometry x="2840" y="45" width="141" height="54" as="geometry" />
        </mxCell>
        <mxCell id="v7X0b-4rlKKfZrICmxZC-15" value="authController" style="whiteSpace=wrap;strokeWidth=2;" vertex="1" parent="1">
          <mxGeometry x="3614" y="303" width="165" height="54" as="geometry" />
        </mxCell>
        <mxCell id="v7X0b-4rlKKfZrICmxZC-16" value="restrictedUserController" style="whiteSpace=wrap;strokeWidth=2;" vertex="1" parent="1">
          <mxGeometry x="3073" y="303" width="235" height="54" as="geometry" />
        </mxCell>
        <mxCell id="v7X0b-4rlKKfZrICmxZC-17" value="playlistController" style="whiteSpace=wrap;strokeWidth=2;" vertex="1" parent="1">
          <mxGeometry x="2557" y="303" width="184" height="54" as="geometry" />
        </mxCell>
        <mxCell id="v7X0b-4rlKKfZrICmxZC-18" value="videosController" style="whiteSpace=wrap;strokeWidth=2;" vertex="1" parent="1">
          <mxGeometry x="2301" y="303" width="178" height="54" as="geometry" />
        </mxCell>
        <mxCell id="v7X0b-4rlKKfZrICmxZC-19" value="verifyToken" style="whiteSpace=wrap;strokeWidth=2;" vertex="1" parent="1">
          <mxGeometry x="1886" y="432" width="143" height="54" as="geometry" />
        </mxCell>
        <mxCell id="v7X0b-4rlKKfZrICmxZC-20" value="mailer" style="whiteSpace=wrap;strokeWidth=2;" vertex="1" parent="1">
          <mxGeometry x="2079" y="432" width="106" height="54" as="geometry" />
        </mxCell>
        <mxCell id="v7X0b-4rlKKfZrICmxZC-21" value="smsSender" style="whiteSpace=wrap;strokeWidth=2;" vertex="1" parent="1">
          <mxGeometry x="2235" y="432" width="135" height="54" as="geometry" />
        </mxCell>
        <mxCell id="v7X0b-4rlKKfZrICmxZC-22" value="Model_User" style="whiteSpace=wrap;strokeWidth=2;" vertex="1" parent="1">
          <mxGeometry x="3749" y="432" width="142" height="54" as="geometry" />
        </mxCell>
        <mxCell id="v7X0b-4rlKKfZrICmxZC-23" value="Model_Video" style="whiteSpace=wrap;strokeWidth=2;" vertex="1" parent="1">
          <mxGeometry x="2420" y="432" width="151" height="54" as="geometry" />
        </mxCell>
        <mxCell id="v7X0b-4rlKKfZrICmxZC-24" value="Model_Playlist" style="whiteSpace=wrap;strokeWidth=2;" vertex="1" parent="1">
          <mxGeometry x="2827" y="432" width="163" height="54" as="geometry" />
        </mxCell>
        <mxCell id="v7X0b-4rlKKfZrICmxZC-25" value="Model_RestrictedUser" style="whiteSpace=wrap;strokeWidth=2;" vertex="1" parent="1">
          <mxGeometry x="3286" y="432" width="215" height="54" as="geometry" />
        </mxCell>
        <mxCell id="v7X0b-4rlKKfZrICmxZC-26" value="graphql_index" style="whiteSpace=wrap;strokeWidth=2;" vertex="1" parent="1">
          <mxGeometry x="263" y="303" width="161" height="54" as="geometry" />
        </mxCell>
        <mxCell id="v7X0b-4rlKKfZrICmxZC-27" value="resolvers" style="whiteSpace=wrap;strokeWidth=2;" vertex="1" parent="1">
          <mxGeometry x="562" y="432" width="124" height="54" as="geometry" />
        </mxCell>
        <mxCell id="v7X0b-4rlKKfZrICmxZC-28" value="typeDefs" style="whiteSpace=wrap;strokeWidth=2;" vertex="1" parent="1">
          <mxGeometry x="310" y="432" width="123" height="54" as="geometry" />
        </mxCell>
        <mxCell id="v7X0b-4rlKKfZrICmxZC-29" value="graphql_verifyToken" style="whiteSpace=wrap;strokeWidth=2;" vertex="1" parent="1">
          <mxGeometry x="55" y="432" width="205" height="54" as="geometry" />
        </mxCell>
        <mxCell id="v7X0b-4rlKKfZrICmxZC-30" value="Model_User_GQL" style="whiteSpace=wrap;strokeWidth=2;" vertex="1" parent="1">
          <mxGeometry x="891" y="561" width="181" height="54" as="geometry" />
        </mxCell>
        <mxCell id="v7X0b-4rlKKfZrICmxZC-31" value="Model_Video_GQL" style="whiteSpace=wrap;strokeWidth=2;" vertex="1" parent="1">
          <mxGeometry x="652" y="561" width="189" height="54" as="geometry" />
        </mxCell>
        <mxCell id="v7X0b-4rlKKfZrICmxZC-32" value="Model_Playlist_GQL" style="whiteSpace=wrap;strokeWidth=2;" vertex="1" parent="1">
          <mxGeometry x="401" y="561" width="201" height="54" as="geometry" />
        </mxCell>
        <mxCell id="v7X0b-4rlKKfZrICmxZC-33" value="Model_RestrictedUser_GQL" style="whiteSpace=wrap;strokeWidth=2;" vertex="1" parent="1">
          <mxGeometry x="98" y="561" width="254" height="54" as="geometry" />
        </mxCell>
        <mxCell id="v7X0b-4rlKKfZrICmxZC-34" value="YouTube_API" style="whiteSpace=wrap;strokeWidth=2;" vertex="1" parent="1">
          <mxGeometry x="1162" y="432" width="149" height="54" as="geometry" />
        </mxCell>
        <mxCell id="v7X0b-4rlKKfZrICmxZC-35" value="MongoDB" style="whiteSpace=wrap;strokeWidth=2;" vertex="1" parent="1">
          <mxGeometry x="1361" y="432" width="124" height="54" as="geometry" />
        </mxCell>
        <mxCell id="v7X0b-4rlKKfZrICmxZC-36" value="Brevo" style="whiteSpace=wrap;strokeWidth=2;" vertex="1" parent="1">
          <mxGeometry x="1696" y="432" width="100" height="54" as="geometry" />
        </mxCell>
        <mxCell id="v7X0b-4rlKKfZrICmxZC-37" value="Vonage" style="whiteSpace=wrap;strokeWidth=2;" vertex="1" parent="1">
          <mxGeometry x="1535" y="432" width="111" height="54" as="geometry" />
        </mxCell>
        <mxCell id="v7X0b-4rlKKfZrICmxZC-38" value="" style="curved=1;startArrow=none;endArrow=block;exitX=0.5;exitY=1;entryX=0;entryY=0.2;rounded=0;" edge="1" parent="1" source="v7X0b-4rlKKfZrICmxZC-5" target="v7X0b-4rlKKfZrICmxZC-15">
          <mxGeometry relative="1" as="geometry">
            <Array as="points">
              <mxPoint x="3433" y="278" />
            </Array>
          </mxGeometry>
        </mxCell>
        <mxCell id="v7X0b-4rlKKfZrICmxZC-39" value="" style="curved=1;startArrow=none;endArrow=block;exitX=0.5;exitY=1;entryX=0.63;entryY=0;rounded=0;" edge="1" parent="1" source="v7X0b-4rlKKfZrICmxZC-6" target="v7X0b-4rlKKfZrICmxZC-16">
          <mxGeometry relative="1" as="geometry">
            <Array as="points">
              <mxPoint x="3249" y="278" />
            </Array>
          </mxGeometry>
        </mxCell>
        <mxCell id="v7X0b-4rlKKfZrICmxZC-40" value="" style="curved=1;startArrow=none;endArrow=block;exitX=0.5;exitY=1;entryX=0.17;entryY=0;rounded=0;" edge="1" parent="1" source="v7X0b-4rlKKfZrICmxZC-7" target="v7X0b-4rlKKfZrICmxZC-16">
          <mxGeometry relative="1" as="geometry">
            <Array as="points">
              <mxPoint x="3039" y="278" />
            </Array>
          </mxGeometry>
        </mxCell>
        <mxCell id="v7X0b-4rlKKfZrICmxZC-41" value="" style="curved=1;startArrow=none;endArrow=block;exitX=0.5;exitY=1;entryX=0.92;entryY=0;rounded=0;" edge="1" parent="1" source="v7X0b-4rlKKfZrICmxZC-8" target="v7X0b-4rlKKfZrICmxZC-17">
          <mxGeometry relative="1" as="geometry">
            <Array as="points">
              <mxPoint x="2798" y="278" />
            </Array>
          </mxGeometry>
        </mxCell>
        <mxCell id="v7X0b-4rlKKfZrICmxZC-42" value="" style="curved=1;startArrow=none;endArrow=block;exitX=0.91;exitY=1;entryX=0.51;entryY=0;rounded=0;" edge="1" parent="1" source="v7X0b-4rlKKfZrICmxZC-9" target="v7X0b-4rlKKfZrICmxZC-17">
          <mxGeometry relative="1" as="geometry">
            <Array as="points">
              <mxPoint x="2654" y="228" />
              <mxPoint x="2654" y="278" />
            </Array>
          </mxGeometry>
        </mxCell>
        <mxCell id="v7X0b-4rlKKfZrICmxZC-43" value="" style="curved=1;startArrow=none;endArrow=block;exitX=1;exitY=0.74;entryX=0.9;entryY=0;rounded=0;" edge="1" parent="1" source="v7X0b-4rlKKfZrICmxZC-10" target="v7X0b-4rlKKfZrICmxZC-18">
          <mxGeometry relative="1" as="geometry">
            <Array as="points">
              <mxPoint x="2174" y="228" />
              <mxPoint x="2174" y="253" />
              <mxPoint x="2529" y="278" />
            </Array>
          </mxGeometry>
        </mxCell>
        <mxCell id="v7X0b-4rlKKfZrICmxZC-44" value="" style="curved=1;startArrow=none;endArrow=block;exitX=1;exitY=0.56;entryX=0;entryY=0.3;rounded=0;" edge="1" parent="1" source="v7X0b-4rlKKfZrICmxZC-11" target="v7X0b-4rlKKfZrICmxZC-17">
          <mxGeometry relative="1" as="geometry">
            <Array as="points">
              <mxPoint x="1585" y="228" />
              <mxPoint x="1585" y="253" />
              <mxPoint x="2204" y="278" />
            </Array>
          </mxGeometry>
        </mxCell>
        <mxCell id="v7X0b-4rlKKfZrICmxZC-45" value="" style="curved=1;startArrow=none;endArrow=block;exitX=0.5;exitY=1;entryX=0.25;entryY=0;rounded=0;" edge="1" parent="1" source="v7X0b-4rlKKfZrICmxZC-12" target="v7X0b-4rlKKfZrICmxZC-15">
          <mxGeometry relative="1" as="geometry">
            <Array as="points">
              <mxPoint x="3618" y="278" />
            </Array>
          </mxGeometry>
        </mxCell>
        <mxCell id="v7X0b-4rlKKfZrICmxZC-46" value="" style="curved=1;startArrow=none;endArrow=block;exitX=0.5;exitY=1;entryX=0.99;entryY=0;rounded=0;" edge="1" parent="1" source="v7X0b-4rlKKfZrICmxZC-13" target="v7X0b-4rlKKfZrICmxZC-15">
          <mxGeometry relative="1" as="geometry">
            <Array as="points">
              <mxPoint x="3853" y="278" />
            </Array>
          </mxGeometry>
        </mxCell>
        <mxCell id="v7X0b-4rlKKfZrICmxZC-47" value="" style="curved=1;startArrow=none;endArrow=block;exitX=1;exitY=0.63;entryX=0.5;entryY=0;rounded=0;" edge="1" parent="1" source="v7X0b-4rlKKfZrICmxZC-14" target="v7X0b-4rlKKfZrICmxZC-5">
          <mxGeometry relative="1" as="geometry">
            <Array as="points">
              <mxPoint x="3433" y="124" />
            </Array>
          </mxGeometry>
        </mxCell>
        <mxCell id="v7X0b-4rlKKfZrICmxZC-48" value="" style="curved=1;startArrow=none;endArrow=block;exitX=1;exitY=0.7;entryX=0.5;entryY=0;rounded=0;" edge="1" parent="1" source="v7X0b-4rlKKfZrICmxZC-14" target="v7X0b-4rlKKfZrICmxZC-6">
          <mxGeometry relative="1" as="geometry">
            <Array as="points">
              <mxPoint x="3249" y="124" />
            </Array>
          </mxGeometry>
        </mxCell>
        <mxCell id="v7X0b-4rlKKfZrICmxZC-49" value="" style="curved=1;startArrow=none;endArrow=block;exitX=0.97;exitY=1;entryX=0.5;entryY=0;rounded=0;" edge="1" parent="1" source="v7X0b-4rlKKfZrICmxZC-14" target="v7X0b-4rlKKfZrICmxZC-7">
          <mxGeometry relative="1" as="geometry">
            <Array as="points">
              <mxPoint x="3039" y="124" />
            </Array>
          </mxGeometry>
        </mxCell>
        <mxCell id="v7X0b-4rlKKfZrICmxZC-50" value="" style="curved=1;startArrow=none;endArrow=block;exitX=0.08;exitY=1;entryX=0.5;entryY=0;rounded=0;" edge="1" parent="1" source="v7X0b-4rlKKfZrICmxZC-14" target="v7X0b-4rlKKfZrICmxZC-8">
          <mxGeometry relative="1" as="geometry">
            <Array as="points">
              <mxPoint x="2798" y="124" />
            </Array>
          </mxGeometry>
        </mxCell>
        <mxCell id="v7X0b-4rlKKfZrICmxZC-51" value="" style="curved=1;startArrow=none;endArrow=block;exitX=0;exitY=0.66;entryX=0.5;entryY=0;rounded=0;" edge="1" parent="1" source="v7X0b-4rlKKfZrICmxZC-14" target="v7X0b-4rlKKfZrICmxZC-9">
          <mxGeometry relative="1" as="geometry">
            <Array as="points">
              <mxPoint x="2473" y="124" />
            </Array>
          </mxGeometry>
        </mxCell>
        <mxCell id="v7X0b-4rlKKfZrICmxZC-52" value="" style="curved=1;startArrow=none;endArrow=block;exitX=0;exitY=0.57;entryX=0.5;entryY=0;rounded=0;" edge="1" parent="1" source="v7X0b-4rlKKfZrICmxZC-14" target="v7X0b-4rlKKfZrICmxZC-10">
          <mxGeometry relative="1" as="geometry">
            <Array as="points">
              <mxPoint x="1897" y="124" />
            </Array>
          </mxGeometry>
        </mxCell>
        <mxCell id="v7X0b-4rlKKfZrICmxZC-53" value="" style="curved=1;startArrow=none;endArrow=block;exitX=0;exitY=0.53;entryX=0.5;entryY=0;rounded=0;" edge="1" parent="1" source="v7X0b-4rlKKfZrICmxZC-14" target="v7X0b-4rlKKfZrICmxZC-11">
          <mxGeometry relative="1" as="geometry">
            <Array as="points">
              <mxPoint x="379" y="124" />
            </Array>
          </mxGeometry>
        </mxCell>
        <mxCell id="v7X0b-4rlKKfZrICmxZC-54" value="" style="curved=1;startArrow=none;endArrow=block;exitX=0.89;exitY=1;entryX=0.5;entryY=0;rounded=0;" edge="1" parent="1" source="v7X0b-4rlKKfZrICmxZC-15" target="v7X0b-4rlKKfZrICmxZC-22">
          <mxGeometry relative="1" as="geometry">
            <Array as="points">
              <mxPoint x="3820" y="382" />
            </Array>
          </mxGeometry>
        </mxCell>
        <mxCell id="v7X0b-4rlKKfZrICmxZC-55" value="" style="curved=1;startArrow=none;endArrow=block;exitX=0.95;exitY=1;entryX=0.5;entryY=0;rounded=0;" edge="1" parent="1" source="v7X0b-4rlKKfZrICmxZC-16" target="v7X0b-4rlKKfZrICmxZC-25">
          <mxGeometry relative="1" as="geometry">
            <Array as="points">
              <mxPoint x="3393" y="382" />
            </Array>
          </mxGeometry>
        </mxCell>
        <mxCell id="v7X0b-4rlKKfZrICmxZC-56" value="" style="curved=1;startArrow=none;endArrow=block;exitX=1;exitY=0.84;entryX=0.5;entryY=0;rounded=0;" edge="1" parent="1" source="v7X0b-4rlKKfZrICmxZC-17" target="v7X0b-4rlKKfZrICmxZC-24">
          <mxGeometry relative="1" as="geometry">
            <Array as="points">
              <mxPoint x="2908" y="382" />
            </Array>
          </mxGeometry>
        </mxCell>
        <mxCell id="v7X0b-4rlKKfZrICmxZC-57" value="" style="curved=1;startArrow=none;endArrow=block;exitX=0.81;exitY=1;entryX=0.5;entryY=0;rounded=0;" edge="1" parent="1" source="v7X0b-4rlKKfZrICmxZC-18" target="v7X0b-4rlKKfZrICmxZC-23">
          <mxGeometry relative="1" as="geometry">
            <Array as="points">
              <mxPoint x="2496" y="382" />
            </Array>
          </mxGeometry>
        </mxCell>
        <mxCell id="v7X0b-4rlKKfZrICmxZC-58" value="" style="curved=1;startArrow=none;endArrow=block;exitX=0.83;exitY=1;entryX=1;entryY=0.48;rounded=0;" edge="1" parent="1" source="v7X0b-4rlKKfZrICmxZC-15" target="v7X0b-4rlKKfZrICmxZC-36">
          <mxGeometry relative="1" as="geometry">
            <Array as="points">
              <mxPoint x="3800" y="382" />
              <mxPoint x="3800" y="407" />
            </Array>
          </mxGeometry>
        </mxCell>
        <mxCell id="v7X0b-4rlKKfZrICmxZC-59" value="" style="curved=1;startArrow=none;endArrow=block;exitX=0;exitY=0.86;entryX=1;entryY=0.47;rounded=0;" edge="1" parent="1" source="v7X0b-4rlKKfZrICmxZC-15" target="v7X0b-4rlKKfZrICmxZC-37">
          <mxGeometry relative="1" as="geometry">
            <Array as="points">
              <mxPoint x="3474" y="382" />
              <mxPoint x="3474" y="407" />
            </Array>
          </mxGeometry>
        </mxCell>
        <mxCell id="v7X0b-4rlKKfZrICmxZC-60" value="" style="curved=1;startArrow=none;endArrow=block;exitX=0;exitY=0.81;entryX=1;entryY=0.47;rounded=0;" edge="1" parent="1" source="v7X0b-4rlKKfZrICmxZC-15" target="v7X0b-4rlKKfZrICmxZC-35">
          <mxGeometry relative="1" as="geometry">
            <Array as="points">
              <mxPoint x="3443" y="382" />
              <mxPoint x="3443" y="407" />
            </Array>
          </mxGeometry>
        </mxCell>
        <mxCell id="v7X0b-4rlKKfZrICmxZC-61" value="" style="curved=1;startArrow=none;endArrow=block;exitX=0;exitY=0.93;entryX=1;entryY=0.46;rounded=0;" edge="1" parent="1" source="v7X0b-4rlKKfZrICmxZC-16" target="v7X0b-4rlKKfZrICmxZC-35">
          <mxGeometry relative="1" as="geometry">
            <Array as="points">
              <mxPoint x="2928" y="382" />
              <mxPoint x="2928" y="407" />
              <mxPoint x="1680" y="370" />
            </Array>
          </mxGeometry>
        </mxCell>
        <mxCell id="v7X0b-4rlKKfZrICmxZC-62" value="" style="curved=1;startArrow=none;endArrow=block;exitX=0.12;exitY=1;entryX=1;entryY=0.45;rounded=0;" edge="1" parent="1" source="v7X0b-4rlKKfZrICmxZC-17" target="v7X0b-4rlKKfZrICmxZC-35">
          <mxGeometry relative="1" as="geometry">
            <Array as="points">
              <mxPoint x="2516" y="382" />
              <mxPoint x="2516" y="407" />
              <mxPoint x="1790" y="360" />
              <mxPoint x="1620" y="382" />
            </Array>
          </mxGeometry>
        </mxCell>
        <mxCell id="v7X0b-4rlKKfZrICmxZC-63" value="" style="curved=1;startArrow=none;endArrow=block;exitX=0;exitY=0.77;rounded=0;entryX=1;entryY=0;entryDx=0;entryDy=0;" edge="1" parent="1" source="v7X0b-4rlKKfZrICmxZC-18" target="v7X0b-4rlKKfZrICmxZC-35">
          <mxGeometry relative="1" as="geometry">
            <Array as="points">
              <mxPoint x="2078" y="382" />
              <mxPoint x="1770" y="300" />
            </Array>
            <mxPoint x="1485" y="454" as="targetPoint" />
          </mxGeometry>
        </mxCell>
        <mxCell id="v7X0b-4rlKKfZrICmxZC-64" value="" style="curved=1;startArrow=none;endArrow=block;exitX=0.38;exitY=1;entryX=0.5;entryY=0;rounded=0;" edge="1" parent="1" source="v7X0b-4rlKKfZrICmxZC-11" target="v7X0b-4rlKKfZrICmxZC-26">
          <mxGeometry relative="1" as="geometry">
            <Array as="points">
              <mxPoint x="344" y="228" />
            </Array>
          </mxGeometry>
        </mxCell>
        <mxCell id="v7X0b-4rlKKfZrICmxZC-65" value="" style="curved=1;startArrow=none;endArrow=block;exitX=1;exitY=0.78;entryX=0.5;entryY=0;rounded=0;" edge="1" parent="1" source="v7X0b-4rlKKfZrICmxZC-26" target="v7X0b-4rlKKfZrICmxZC-27">
          <mxGeometry relative="1" as="geometry">
            <Array as="points">
              <mxPoint x="624" y="382" />
            </Array>
          </mxGeometry>
        </mxCell>
        <mxCell id="v7X0b-4rlKKfZrICmxZC-66" value="" style="curved=1;startArrow=none;endArrow=block;exitX=0.59;exitY=1;entryX=0.5;entryY=0;rounded=0;" edge="1" parent="1" source="v7X0b-4rlKKfZrICmxZC-26" target="v7X0b-4rlKKfZrICmxZC-28">
          <mxGeometry relative="1" as="geometry">
            <Array as="points">
              <mxPoint x="371" y="382" />
            </Array>
          </mxGeometry>
        </mxCell>
        <mxCell id="v7X0b-4rlKKfZrICmxZC-67" value="" style="curved=1;startArrow=none;endArrow=block;exitX=0;exitY=0.92;entryX=0.5;entryY=0;rounded=0;" edge="1" parent="1" source="v7X0b-4rlKKfZrICmxZC-26" target="v7X0b-4rlKKfZrICmxZC-29">
          <mxGeometry relative="1" as="geometry">
            <Array as="points">
              <mxPoint x="157" y="382" />
            </Array>
          </mxGeometry>
        </mxCell>
        <mxCell id="v7X0b-4rlKKfZrICmxZC-68" value="" style="curved=1;startArrow=none;endArrow=block;exitX=1;exitY=0.67;entryX=0.5;entryY=0;rounded=0;" edge="1" parent="1" source="v7X0b-4rlKKfZrICmxZC-27" target="v7X0b-4rlKKfZrICmxZC-30">
          <mxGeometry relative="1" as="geometry">
            <Array as="points">
              <mxPoint x="981" y="511" />
            </Array>
          </mxGeometry>
        </mxCell>
        <mxCell id="v7X0b-4rlKKfZrICmxZC-69" value="" style="curved=1;startArrow=none;endArrow=block;exitX=1;exitY=0.99;entryX=0.5;entryY=0;rounded=0;" edge="1" parent="1" source="v7X0b-4rlKKfZrICmxZC-27" target="v7X0b-4rlKKfZrICmxZC-31">
          <mxGeometry relative="1" as="geometry">
            <Array as="points">
              <mxPoint x="747" y="511" />
            </Array>
          </mxGeometry>
        </mxCell>
        <mxCell id="v7X0b-4rlKKfZrICmxZC-70" value="" style="curved=1;startArrow=none;endArrow=block;exitX=0;exitY=0.99;entryX=0.5;entryY=0;rounded=0;" edge="1" parent="1" source="v7X0b-4rlKKfZrICmxZC-27" target="v7X0b-4rlKKfZrICmxZC-32">
          <mxGeometry relative="1" as="geometry">
            <Array as="points">
              <mxPoint x="502" y="511" />
            </Array>
          </mxGeometry>
        </mxCell>
        <mxCell id="v7X0b-4rlKKfZrICmxZC-71" value="" style="curved=1;startArrow=none;endArrow=block;exitX=0;exitY=0.65;entryX=0.5;entryY=0;rounded=0;" edge="1" parent="1" source="v7X0b-4rlKKfZrICmxZC-27" target="v7X0b-4rlKKfZrICmxZC-33">
          <mxGeometry relative="1" as="geometry">
            <Array as="points">
              <mxPoint x="225" y="511" />
            </Array>
          </mxGeometry>
        </mxCell>
        <mxCell id="v7X0b-4rlKKfZrICmxZC-72" value="" style="curved=1;startArrow=none;endArrow=block;exitX=0;exitY=0.8;entryX=0;entryY=0.46;rounded=0;" edge="1" parent="1" source="v7X0b-4rlKKfZrICmxZC-26" target="v7X0b-4rlKKfZrICmxZC-35">
          <mxGeometry relative="1" as="geometry">
            <Array as="points">
              <mxPoint x="89" y="382" />
              <mxPoint x="89" y="407" />
              <mxPoint x="1230" y="310" />
            </Array>
          </mxGeometry>
        </mxCell>
        <mxCell id="v7X0b-4rlKKfZrICmxZC-73" value="" style="curved=1;startArrow=none;endArrow=block;exitX=0;exitY=0.9;entryX=1;entryY=0.25;rounded=0;" edge="1" parent="1" source="v7X0b-4rlKKfZrICmxZC-9" target="v7X0b-4rlKKfZrICmxZC-34">
          <mxGeometry relative="1" as="geometry">
            <Array as="points">
              <mxPoint x="2194" y="228" />
              <mxPoint x="2194" y="253" />
              <mxPoint x="1524" y="278" />
              <mxPoint x="1524" y="407" />
            </Array>
          </mxGeometry>
        </mxCell>
        <mxCell id="v7X0b-4rlKKfZrICmxZC-74" value="" style="curved=1;startArrow=none;endArrow=block;exitX=0;exitY=0.73;entryX=0.38;entryY=0;rounded=0;" edge="1" parent="1" source="v7X0b-4rlKKfZrICmxZC-10" target="v7X0b-4rlKKfZrICmxZC-34">
          <mxGeometry relative="1" as="geometry">
            <Array as="points">
              <mxPoint x="1605" y="228" />
              <mxPoint x="1605" y="253" />
              <mxPoint x="1201" y="278" />
              <mxPoint x="1201" y="407" />
            </Array>
          </mxGeometry>
        </mxCell>
      </root>
    </mxGraphModel>
  </diagram>
</mxfile>
